PathFileType	4	(X/Y/Z)	Kaydara																																																																																																																									
DataRate	CameraRate	NumFrames	NumMarkers	Units	OrigDataRate	OrigDataStartFrame	OrigNumFrames																																																																																																																					
30	30	8	41	mm	30	70	144																																																																																																																					
Frame#	Time	EMLA_LFHD			EMLA_RFHD			EMLA_LBHD			EMLA_RBHD			EMLA_LFTShould			EMLA_RFTShould			EMLA_LRRShould			EMLA_RRRShould			EMLA_T10			EMLA_STRN			EMLA_TRUN			EMLA_LSHO			EMLA_LUPA			EMLA_LELB			EMLA_LFRM			EMLA_LWRA			EMLA_LWRB			EMLA_LFIN			EMLA_RSHO			EMLA_RUPA			EMLA_RELB			EMLA_RFRM			EMLA_RWRA			EMLA_RWRB			EMLA_RFIN			EMLA_LFWT			EMLA_RFWT			EMLA_LBWT			EMLA_RBWT			EMLA_LTHI			EMLA_LKNE			EMLA_LSHN			EMLA_LANK			EMLA_LHEE			EMLA_LTOE			EMLA_RTHI			EMLA_RKNE			EMLA_RSHN			EMLA_RANK			EMLA_RHEE			EMLA_RTOE		
		X1	Y1	Z1	X2	Y2	Z2	X3	Y3	Z3	X4	Y4	Z4	X5	Y5	Z5	X6	Y6	Z6	X7	Y7	Z7	X8	Y8	Z8	X9	Y9	Z9	X10	Y10	Z10	X11	Y11	Z11	X12	Y12	Z12	X13	Y13	Z13	X14	Y14	Z14	X15	Y15	Z15	X16	Y16	Z16	X17	Y17	Z17	X18	Y18	Z18	X19	Y19	Z19	X20	Y20	Z20	X21	Y21	Z21	X22	Y22	Z22	X23	Y23	Z23	X24	Y24	Z24	X25	Y25	Z25	X26	Y26	Z26	X27	Y27	Z27	X28	Y28	Z28	X29	Y29	Z29	X30	Y30	Z30	X31	Y31	Z31	X32	Y32	Z32	X33	Y33	Z33	X34	Y34	Z34	X35	Y35	Z35	X36	Y36	Z36	X37	Y37	Z37	X38	Y38	Z38	X39	Y39	Z39	X40	Y40	Z40	X41	Y41	Z41
																																																																																																																												
55	2.3	303.85838	1591.1795	-1649.73175	132.05607	1584.71756	-1659.44946	324.90517	1600.10269	-1798.46085	130.78023	1595.82672	-1810.51529	301.91074	1365.32623	-1725.92377	154.85138	1362.42004	-1739.61884	318.046	1425.29221	-1867.53326	162.39956	1423.8623	-1883.21213	252.69627	1256.87759	-1934.82971	223.51206	1294.66049	-1702.85141	216.7671	1190.07507	-1693.05145	432.52403	1390.20386	-1759.10446	480.43575	1209.19754	-1737.97638	486.11935	1065.10048	-1704.55658	453.38531	935.10818	-1657.23312	326.68446	849.72328	-1551.06659	384.03027	798.6348	-1591.07193	362.2147	790.27382	-1525.0592	44.42859	1405.08286	-1814.9527	-25.17442	1231.56174	-1878.87085	-48.48406	1106.28433	-1948.48663	-59.89363	1021.03867	-1996.60492	-47.72294	820.32097	-1966.31195	-74.93334	843.17978	-2045.59113	-104.51348	795.88272	-2011.5509	334.59167	947.36717	-1747.85553	101.58255	963.08899	-1748.93127	296.10291	988.4758	-1949.19693	119.36148	987.7256	-1933.5202	332.87205	717.34344	-1979.39774	332.60345	508.04081	-1977.10236	295.96384	326.65085	-2000.44479	289.69687	165.72748	-2105.31204	221.70336	94.72566	-2180.05951	248.26443	73.62112	-1983.68744	63.48787	677.38174	-1825.19821	48.96189	534.8061	-1653.38028	98.76562	314.16286	-1602.24884	69.09429	139.61634	-1656.10748	131.75471	82.39161	-1695.271	84.43569	94.19058	-1500.88531
56	2.333	301.51505	1584.26987	-1625.46387	129.75397	1576.93466	-1634.79309	322.33166	1593.16635	-1774.4635	128.00416	1587.92633	-1785.92422	300.07664	1357.84302	-1702.47284	152.77821	1354.63776	-1715.05173	315.19365	1418.72238	-1844.00681	159.27589	1416.96915	-1858.52631	249.64563	1250.317	-1911.58203	221.95984	1287.04285	-1679.02679	215.57425	1182.43111	-1669.42093	430.37022	1383.4996	-1736.65634	477.72243	1202.96669	-1713.36105	482.99168	1059.57634	-1676.44928	448.73604	930.72914	-1626.06216	320.40649	849.71443	-1518.2637	376.86726	796.59813	-1556.56647	355.00301	790.37331	-1490.63339	41.56736	1396.97906	-1789.40536	-26.89225	1223.95576	-1855.08789	-49.23288	1099.30847	-1926.13617	-60.25502	1015.09544	-1975.85464	-48.63974	813.82957	-1948.80219	-74.83424	838.08479	-2028.02078	-104.97107	790.36407	-1995.24719	334.21814	940.66025	-1725.70831	101.16698	954.82918	-1724.6582	293.61015	982.93816	-1926.3649	116.97388	980.74432	-1909.39713	332.85393	715.05455	-1961.22467	332.93179	505.75394	-1964.22516	296.2846	324.89128	-1992.60025	290.19869	167.12465	-2102.15271	222.27381	98.03049	-2179.13651	248.43771	73.53045	-1983.48724	64.07356	669.24515	-1803.5083	52.42381	524.53186	-1633.08121	102.76684	311.28056	-1560.82016	69.58306	132.02873	-1593.32596	130.35686	70.44145	-1627.88956	91.34295	103.34317	-1434.0976
57	2.367	298.37994	1577.78809	-1598.95172	126.91734	1569.47739	-1607.53128	318.69413	1586.23108	-1748.02872	124.39602	1579.93561	-1758.86414	297.40389	1350.60501	-1676.39893	149.9651	1346.53671	-1687.83081	311.5554	1412.59247	-1817.56561	154.94699	1410.24673	-1831.31042	245.88173	1244.31641	-1886.16425	219.71088	1279.1037	-1652.68906	214.10229	1174.26445	-1644.84558	427.37206	1376.43951	-1711.10245	474.12796	1196.1232	-1686.94366	479.16321	1053.4214	-1647.16843	444.06212	925.62668	-1594.55276	314.55866	847.23625	-1485.94788	371.04446	793.16566	-1522.67975	348.54343	788.33015	-1456.9519	37.83778	1388.6499	-1761.0173	-29.19662	1215.36369	-1827.26913	-50.89979	1091.17561	-1899.25583	-61.20483	1007.43591	-1950.0119	-48.1666	806.07048	-1925.3006	-74.73346	830.97115	-2004.11545	-104.38153	782.57111	-1971.9072	333.24051	934.04572	-1701.31958	100.14517	946.75766	-1698.53241	291.05089	977.21375	-1901.40488	114.29164	973.84842	-1883.59528	332.1056	713.44902	-1941.18179	333.41824	504.47506	-1950.45105	297.33549	324.41204	-1984.28192	291.41075	170.12815	-2098.85132	223.40992	103.50633	-2177.72171	248.87732	73.4587	-1983.3049	63.75223	661.16615	-1779.55154	55.61837	516.4365	-1608.87283	105.20429	310.29898	-1521.75034	69.5011	129.55981	-1536.60065	128.27457	64.97298	-1568.58459	97.13707	111.57341	-1376.25504
58	2.4	294.27103	1572.56195	-1569.78912	123.0294	1563.56644	-1577.98859	314.24337	1580.29388	-1718.99078	119.84276	1572.90863	-1729.32983	293.6381	1343.73978	-1646.93283	146.24089	1339.3454	-1657.8624	307.03842	1407.15973	-1787.84332	150.28696	1404.552	-1801.11389	241.51773	1239.31137	-1857.47238	216.3303	1272.02744	-1623.74298	211.29227	1167.08229	-1616.50925	423.46458	1370.30792	-1682.20505	469.72153	1189.76784	-1657.97333	474.68132	1047.73781	-1616.59821	439.51054	920.50751	-1562.71149	309.51197	842.86201	-1454.10751	366.75392	788.83087	-1489.77814	343.48328	784.58473	-1424.21143	33.44457	1381.51276	-1730.19424	-32.06191	1207.22488	-1795.88013	-52.75372	1082.90184	-1867.98553	-62.33614	999.33769	-1919.04648	-47.56425	797.91672	-1894.91425	-74.54989	822.89139	-1973.62991	-103.45583	774.00963	-1941.71616	331.01971	928.0571	-1674.16321	97.78193	939.67941	-1670.36346	288.41251	972.04361	-1873.94562	111.51418	967.8862	-1855.84152	330.90446	713.38425	-1919.14963	333.60985	504.77974	-1935.12619	298.33887	325.57419	-1974.40613	292.5124	175.25042	-2094.14032	224.70661	111.27143	-2175.0882	249.46903	73.3969	-1982.40067	63.34705	654.85146	-1752.01508	57.12603	510.85548	-1580.42908	107.20331	309.5314	-1484.76517	70.97578	128.42395	-1490.3064	129.23796	61.78369	-1519.48441	100.40415	118.74801	-1329.59076
59	2.433	289.09895	1569.30664	-1537.87689	117.87674	1559.51447	-1545.63095	308.90991	1575.73029	-1687.22382	114.51836	1567.59033	-1697.2139	289.06345	1338.92273	-1614.189	141.72993	1334.25674	-1624.8143	301.98614	1403.27377	-1754.59839	145.25416	1400.41824	-1768.05145	237.28827	1235.90408	-1825.55725	211.97495	1266.78947	-1591.14044	207.3247	1161.79436	-1584.89655	418.77293	1366.06903	-1649.38507	464.69082	1185.26367	-1626.16623	469.59011	1043.65257	-1584.34998	435.41573	916.1895	-1530.7991	305.73692	836.97678	-1422.88635	363.66375	783.39653	-1458.21686	340.2755	779.14192	-1392.74033	28.43349	1376.0881	-1697.02881	-35.37513	1200.62668	-1761.38214	-54.86658	1075.60745	-1832.85202	-63.50263	991.58478	-1883.48694	-47.28094	790.36667	-1857.49527	-74.02412	814.57848	-1936.51657	-102.70681	765.7296	-1904.53125	327.77283	923.35915	-1644.3486	95.10728	934.17046	-1639.9202	284.99762	968.00064	-1843.8942	108.10485	963.57323	-1825.51956	328.71552	714.39644	-1894.21783	333.39703	506.44287	-1916.3237	299.30613	328.46172	-1961.62399	293.52316	182.76474	-2087.10602	226.2009	122.58942	-2170.45166	249.88808	73.29829	-1980.91248	61.14453	651.23535	-1720.73135	57.60133	507.28176	-1548.24493	108.95425	307.50813	-1450.74448	74.04168	126.23865	-1454.07806	132.88539	59.17952	-1482.03918	102.02315	119.95788	-1293.61282
60	2.467	282.86413	1568.45627	-1503.27042	111.74277	1558.02994	-1511.05957	302.8483	1573.1282	-1652.74536	108.53469	1564.09637	-1662.81219	283.76268	1336.21964	-1577.91077	136.4712	1330.914	-1588.73001	296.46826	1401.47263	-1718.00003	139.59336	1398.09387	-1731.80588	232.65249	1234.30313	-1790.08301	207.01326	1263.56247	-1555.26321	202.90724	1158.56728	-1549.67804	413.23574	1364.02115	-1612.59186	459.11793	1182.79396	-1590.53604	464.14112	1041.13274	-1550.28519	431.69273	912.72476	-1498.71246	303.42066	829.51279	-1392.59293	362.4157	777.40875	-1428.42056	338.93261	772.03667	-1362.97699	22.78684	1372.40021	-1660.79041	-39.12403	1195.68222	-1723.67462	-57.52358	1069.73213	-1794.16702	-65.03008	984.7023	-1843.74207	-47.32843	784.23103	-1813.80661	-73.58566	806.55418	-1893.57681	-102.10034	758.39333	-1860.7933	324.91116	921.1602	-1612.54822	91.87796	931.14304	-1605.82672	280.0861	965.30273	-1810.70801	103.3533	961.34384	-1791.59241	325.29243	716.55609	-1865.29648	333.27015	509.2078	-1892.25327	300.25402	332.48299	-1944.6698	295.54098	192.86362	-2076.81244	228.80295	137.80133	-2162.84836	250.3783	73.12992	-1978.68042	62.55997	649.49806	-1683.47031	56.73785	504.71241	-1513.79105	110.66607	302.81815	-1421.12183	77.42302	121.57767	-1428.79761	136.10914	56.90854	-1459.89929	104.88119	111.05204	-1268.86078
61	2.5	275.86731	1570.42099	-1466.24954	104.9671	1559.18701	-1474.15314	296.13247	1572.85858	-1615.72906	101.85656	1562.84027	-1626.01212	277.96139	1335.97443	-1538.53424	130.81558	1329.80774	-1549.60861	290.58783	1402.30835	-1678.69202	133.19818	1397.79724	-1692.38312	227.4077	1234.84238	-1751.47995	201.67158	1262.72964	-1516.19644	198.39579	1157.85805	-1511.13449	406.98616	1364.10858	-1572.3494	453.48526	1182.79373	-1552.28302	458.69038	1040.1329	-1514.72397	428.99712	910.31685	-1467.02606	302.78936	821.04774	-1363.9566	363.08178	771.27144	-1400.86029	339.78355	763.88954	-1335.62225	16.46982	1370.45532	-1621.23749	-43.67667	1192.2261	-1682.23785	-60.9357	1065.17014	-1751.53992	-67.29102	978.91594	-1799.68491	-47.67797	779.65691	-1764.8262	-73.71317	799.47815	-1845.28442	-102.06809	751.6835	-1811.78162	320.39024	920.83305	-1576.83075	88.15215	932.47963	-1569.35165	274.11179	964.22058	-1774.95026	97.15264	962.12601	-1755.54718	320.9362	719.19182	-1831.18301	332.9306	512.04163	-1860.96817	301.26913	337.08473	-1921.79794	298.24978	205.24162	-2061.61331	232.47471	156.6456	-2150.53467	250.39736	72.93657	-1975.09201	61.77888	651.03035	-1643.8945	54.18906	506.20171	-1473.41171	112.2613	298.81912	-1396.55045	80.4304	119.84792	-1420.41107	137.52573	59.60853	-1458.19336	106.84753	87.86098	-1262.03575
62	2.533	268.41312	1575.289	-1427.03308	97.68627	1563.00262	-1435.03967	288.96193	1575.26886	-1576.57181	94.76931	1564.06982	-1587.0224	271.63525	1338.32916	-1496.17645	125.14177	1331.06735	-1508.26279	284.79837	1405.79987	-1635.66025	126.79324	1400.48126	-1649.96735	222.92002	1239.33189	-1710.26505	195.78218	1264.2952	-1474.66812	192.56834	1159.25514	-1470.50537	400.0412	1366.90079	-1527.12555	447.44144	1185.04433	-1511.14838	454.03664	1041.39198	-1479.65134	427.68135	909.77623	-1437.64771	304.30098	813.09326	-1338.07114	365.97294	766.43257	-1377.03445	343.22739	756.1393	-1311.96182	10.11292	1371.01166	-1578.84872	-48.14174	1190.59891	-1636.87469	-64.72638	1062.41631	-1704.56985	-70.2097	974.93095	-1750.8226	-48.72581	776.83731	-1711.29715	-74.76245	794.3084	-1791.96152	-102.70394	747.14821	-1757.30865	314.61069	922.60666	-1537.6268	82.02847	938.80592	-1531.0611	270.03338	965.29289	-1735.59265	93.62401	968.4684	-1718.19061	316.05173	720.41351	-1791.57074	332.24468	513.36971	-1821.26297	302.4576	341.23734	-1892.19696	301.13768	218.72835	-2040.21744	235.9626	178.18682	-2131.54526	249.70234	72.41982	-1969.84497	54.50865	660.16312	-1603.06717	50.45773	516.72832	-1432.53372	108.82916	298.39811	-1372.15378	77.28701	121.15376	-1412.23206	136.28796	63.64059	-1454.36905	103.59401	79.4223	-1256.95137
